<svg width="466" height="402" viewBox="0 0 466 402" fill="none" xmlns="http://www.w3.org/2000/svg">
  <path d="M232.639 106.067L320.852 194.769L232.639 283.471L144.425 194.769L232.639 106.067Z" fill="#61A1DC" />
  <path d="M229.513 100.321L138.703 191.633H38.9275L229.509 0.00341797L229.513 100.321Z" fill="#6AB5FA" />
  <path d="M138.706 197.92L229.516 289.233V389.55L38.938 197.92H138.706Z" fill="#6AB5FA" />
  <path d="M235.768 289.23L326.578 197.917H426.35L235.772 389.547L235.768 289.23Z" fill="#0B4781" />
  <path d="M326.574 191.63L235.765 100.317V0L426.343 191.63H326.574Z" fill="#147ADB" />
  <path d="M316.878 291.872C305.632 303.945 283.692 302.776 269.255 290.288C254.783 277.777 251.899 259.889 261.613 249.433C266.712 244.324 294.757 218.817 316.222 189.601C338.89 161.318 354.977 129.324 363.955 132.799C372.714 135.762 372.741 176.318 359.469 213.685C347.737 251.658 322.705 286.442 316.878 291.872Z" fill="#1C5286" />
  <path d="M290.428 238.557C301.683 234.841 360.37 207.354 361.828 206.564C361.094 208.944 360.308 211.321 359.468 213.685C347.735 251.659 322.705 286.443 316.877 291.871C305.631 303.944 283.691 302.776 269.254 290.288C263.804 285.577 259.999 280.102 257.89 274.551C258.443 271.855 259.4 248.801 290.428 238.557Z" fill="#1C60A1" />
  <path d="M327.403 323.705C312.223 330.171 292.65 320.191 284.528 302.917C276.384 285.608 281.015 268.088 294.137 262.479C300.871 259.882 336.859 247.964 368.34 229.982C400.541 213.342 428.235 190.64 435.027 197.462C441.828 203.727 425.381 240.798 398.077 269.555C371.934 299.49 334.933 321.11 327.403 323.705Z" fill="#1D6EBA" />
  <path d="M393.481 238.758C391.789 243.548 389.882 248.356 387.747 253.092C372.927 289.97 345.117 322.576 338.863 327.506C326.661 338.613 304.893 335.642 291.532 322.007C278.139 308.349 276.738 290.282 287.278 280.661C288.325 279.773 387.901 241.462 393.481 238.758Z" fill="#227FD7" />
  <path d="M315.375 352.362C298.878 352.109 285.039 335.044 284.627 315.961C284.209 296.836 295.553 282.704 309.822 282.903C317.031 283.264 354.758 286.978 390.827 283.321C427.009 281.184 461.534 271.676 464.973 280.668C468.646 289.154 438.568 316.361 401.943 331.558C365.902 348.305 323.31 353.047 315.375 352.362Z" fill="#3990E0" />
  <path d="M148.402 291.872C159.648 303.945 181.587 302.776 196.025 290.288C210.497 277.777 213.381 259.889 203.667 249.433C198.567 244.324 170.523 218.817 149.058 189.601C126.39 161.318 110.303 129.324 101.325 132.799C92.5655 135.762 92.5391 176.318 105.811 213.685C117.543 251.658 142.575 286.442 148.402 291.872Z" fill="#1C5286" />
  <path d="M174.852 238.557C163.597 234.841 104.91 207.354 103.452 206.564C104.186 208.944 104.972 211.321 105.812 213.685C117.545 251.659 142.575 286.443 148.403 291.871C159.649 303.944 181.589 302.776 196.026 290.288C201.476 285.577 205.281 280.102 207.39 274.551C206.837 271.855 205.88 248.801 174.852 238.557Z" fill="#1C60A1" />
  <path d="M137.877 323.705C153.057 330.171 172.63 320.191 180.752 302.917C188.896 285.608 184.265 268.088 171.144 262.479C164.409 259.882 128.421 247.964 96.9406 229.982C64.739 213.342 37.0449 190.64 30.2529 197.462C23.4518 203.727 39.8993 240.798 67.2026 269.555C93.3465 299.49 130.348 321.11 137.877 323.705Z" fill="#1D6EBA" />
  <path d="M70.7161 238.758C72.4083 243.548 74.3155 248.356 76.451 253.092C91.2705 289.97 119.081 322.576 125.336 327.506C137.537 338.613 159.306 335.641 172.666 322.007C186.059 308.348 187.46 290.281 176.92 280.661C175.873 279.772 76.2962 241.462 70.7161 238.758Z" fill="#227FD7" />
  <path d="M149.904 352.362C166.401 352.109 180.24 335.045 180.652 315.961C181.07 296.836 169.726 282.704 155.458 282.903C148.249 283.264 110.521 286.978 74.4528 283.321C38.2692 281.183 3.74396 271.676 0.304343 280.669C-3.36882 289.155 26.7099 316.361 63.3343 331.559C99.378 348.305 141.97 353.047 149.904 352.362Z" fill="#3990E0" />
  <path d="M348.673 329.429C348.673 393.512 296.723 402 232.641 402C168.558 402 116.609 393.511 116.609 329.429C116.609 265.347 168.557 205.196 232.64 205.196C296.723 205.196 348.673 265.347 348.673 329.429Z" fill="url(#paint0_linear_42_1709)" />
  <path d="M210.447 236.412C200.532 239.83 191.843 245.134 184.618 252.177C181.801 254.923 177.293 254.866 174.546 252.049C171.8 249.232 171.859 244.723 174.675 241.978C183.415 233.457 193.888 227.054 205.803 222.945C209.522 221.663 213.581 223.636 214.857 227.356C216.577 232.361 211.474 236.057 210.447 236.412Z" fill="#D5EBFF" />
  <path d="M160.474 314.649C167.72 314.649 173.594 308.775 173.594 301.529C173.594 294.284 167.72 288.41 160.474 288.41C153.229 288.41 147.355 294.284 147.355 301.529C147.355 308.775 153.229 314.649 160.474 314.649Z" fill="black" />
  <path d="M306.439 314.649C313.685 314.649 319.559 308.775 319.559 301.529C319.559 294.284 313.685 288.41 306.439 288.41C299.194 288.41 293.32 294.284 293.32 301.529C293.32 308.775 299.194 314.649 306.439 314.649Z" fill="black" />
  <path d="M231.354 355.229C240.281 355.229 248.545 353.938 256.147 351.358C263.749 348.778 270.792 344.977 277.278 339.956L281.986 346.86C275.36 352.3 267.724 356.658 259.076 359.936C250.498 363.284 241.257 364.957 231.354 364.957C221.451 364.957 212.176 363.284 203.528 359.936C194.95 356.658 187.348 352.3 180.723 346.86L185.43 339.956C191.916 344.977 198.96 348.778 206.562 351.358C214.163 353.938 222.427 355.229 231.354 355.229Z" fill="black" />
  <defs>
    <linearGradient id="paint0_linear_42_1709" x1="232.641" y1="205.196" x2="232.641" y2="402" gradientUnits="userSpaceOnUse">
      <stop stop-color="#86BAEB" />
      <stop offset="1" stop-color="#005CB3" />
    </linearGradient>
  </defs>
</svg>
