<svg width="60" height="60" viewBox="0 0 60 60" fill="none" xmlns="http://www.w3.org/2000/svg">
  <path d="M55.95 16H37.05C35.9762 16.0012 34.9468 16.4282 34.1875 17.1875C33.4282 17.9467 33.0011 18.9762 33 20.05V38.95C33.0012 40.0238 33.4282 41.0532 34.1875 41.8125C34.9467 42.5718 35.9762 42.9989 37.05 43H55.95C57.0238 42.9988 58.0532 42.5718 58.8125 41.8125C59.5718 41.0533 59.9989 40.0238 60 38.95V20.05C59.9988 18.9762 59.5718 17.9468 58.8125 17.1875C58.0533 16.4282 57.0238 16.0011 55.95 16V16ZM57.3 38.95C57.2997 39.308 57.1573 39.6512 56.9043 39.9043C56.6512 40.1573 56.308 40.2997 55.95 40.3H37.05C36.692 40.2997 36.3488 40.1573 36.0957 39.9043C35.8427 39.6512 35.7003 39.308 35.7 38.95V20.05C35.7003 19.692 35.8427 19.3488 36.0957 19.0957C36.3488 18.8427 36.692 18.7003 37.05 18.7H55.95C56.308 18.7003 56.6512 18.8427 56.9043 19.0957C57.1573 19.3488 57.2997 19.692 57.3 20.05V38.95Z" fill="#4A92FF" />
  <path d="M54.6001 22.75H38.4001C37.9178 22.75 37.4721 23.0073 37.231 23.425C36.9897 23.8427 36.9897 24.3573 37.231 24.775C37.4721 25.1927 37.9178 25.45 38.4001 25.45H54.6001C55.0824 25.45 55.5281 25.1927 55.7692 24.775C56.0104 24.3573 56.0104 23.8427 55.7692 23.425C55.5281 23.0073 55.0824 22.75 54.6001 22.75Z" fill="#4A92FF" />
  <path d="M54.6001 28.15H38.4001C37.9178 28.15 37.4721 28.4074 37.231 28.825C36.9897 29.2427 36.9897 29.7574 37.231 30.175C37.4721 30.5927 37.9178 30.85 38.4001 30.85H54.6001C55.0824 30.85 55.5281 30.5927 55.7692 30.175C56.0104 29.7574 56.0104 29.2427 55.7692 28.825C55.5281 28.4074 55.0824 28.15 54.6001 28.15Z" fill="#4A92FF" />
  <path d="M47.8501 33.5499H38.4001C37.9178 33.5499 37.4721 33.8073 37.231 34.2249C36.9897 34.6426 36.9897 35.1573 37.231 35.5749C37.4721 35.9926 37.9178 36.2499 38.4001 36.2499H47.8501C48.3324 36.2499 48.7781 35.9926 49.0192 35.5749C49.2604 35.1573 49.2604 34.6426 49.0192 34.2249C48.7781 33.8073 48.3324 33.5499 47.8501 33.5499Z" fill="#4A92FF" />
  <path d="M20.5942 28.83C20.4964 28.7643 20.3799 28.7324 20.2623 28.7389C20.1447 28.7454 20.0324 28.79 19.9425 28.866C18.0783 30.2435 15.818 30.98 13.5002 30.9652C11.185 30.9631 8.92976 30.2284 7.05751 28.8664C6.96355 28.7991 6.85232 28.7599 6.7369 28.7536C6.62149 28.7472 6.50666 28.7739 6.40582 28.8304C2.13737 31.5809 0 36.975 0 43.1625C0 47.4335 27 47.4335 27 43.1625C27 36.975 24.8647 31.5809 20.5942 28.83Z" fill="#4A92FF" />
  <path d="M13.5 28.1426C17.9577 28.1426 21.5713 24.529 21.5713 20.0713C21.5713 15.6136 17.9577 12 13.5 12C9.04233 12 5.42871 15.6136 5.42871 20.0713C5.42871 24.529 9.04233 28.1426 13.5 28.1426Z" fill="#4A92FF" />
</svg>
