<svg width="60" height="60" viewBox="0 0 60 60" fill="none" xmlns="http://www.w3.org/2000/svg">
  <path d="M8.67631 15.3486C8.67631 12.9402 6.74077 11 4.33816 11C1.93554 11 0 12.9402 0 15.3486C0 17.757 1.93554 19.6972 4.33816 19.6972C6.67409 19.6972 8.67631 17.757 8.67631 15.3486ZM8.67631 44.6514C8.67631 42.243 6.74077 40.3028 4.33816 40.3028C1.93554 40.3028 0 42.243 0 44.6514C0 47.0598 1.93554 49 4.33816 49C6.67409 49 8.67631 47.0598 8.67631 44.6514ZM46.8521 19.6303V25.919H42.3136C35.3058 25.919 33.704 23.5106 31.3681 19.9648C28.9655 16.2852 25.6284 11.2676 16.3514 11.2676H8.80969C9.8108 12.338 10.4115 13.7428 10.4115 15.3485C10.4115 16.9542 9.8108 18.3591 8.80969 19.4295H16.2847C21.2235 19.4295 22.4248 21.2357 24.5605 24.4471C25.695 26.1865 27.0968 28.2603 29.1657 30C27.0968 31.7394 25.762 33.8133 24.5605 35.5529C22.4249 38.8312 21.2235 40.5705 16.2847 40.5705H8.80969C9.8108 41.6409 10.4115 43.0458 10.4115 44.6515C10.4115 46.2572 9.8108 47.662 8.80969 48.7324H16.2847C25.6284 48.7324 28.8987 43.7148 31.3014 40.0352C33.704 36.4225 35.2391 34.081 42.1801 34.081H46.7853V40.3697L60 30L46.8521 19.6303Z" fill="#4A92FF" />
</svg>
