<svg width="120" height="120" viewBox="0 0 120 120" fill="none" xmlns="http://www.w3.org/2000/svg">
<path d="M106.961 26.8822H105.718C102.691 24.2745 83.2835 8 69.073 8C55.073 8 35.4732 24.2922 32.4278 26.8822H31.1677C29.7677 26.8822 28.5078 27.4597 27.5976 28.3871H4.9524C2.22244 28.3871 0 30.6095 0 33.3395V35.5619C0 38.2919 2.22244 40.5143 4.9524 40.5143H11.725C12.915 40.5143 14.0701 40.0945 14.9625 39.3069L16.3452 38.0996C16.765 37.732 17.3076 37.5398 17.8678 37.5398H27.5803C28.3327 38.2922 29.3129 38.7998 30.4152 38.9747V43.9448C30.4152 65.2594 47.7574 82.6017 69.0721 82.6017C90.3867 82.6017 107.712 65.2594 107.712 43.9448L107.711 38.9747C110.126 38.6071 111.999 36.5247 111.999 34.0046V31.9222C111.999 29.1395 109.741 26.8821 106.959 26.8821L106.961 26.8822ZM69.0732 10.6245C80.1682 10.6245 95.4276 21.9115 101.606 26.8822H36.5752C42.8053 21.9121 58.1704 10.6245 69.0732 10.6245ZM17.8679 34.9144C16.6779 34.9144 15.5405 35.3343 14.6304 36.1218L13.2304 37.3292C12.8105 37.6967 12.268 37.889 11.7078 37.889L4.95284 37.8894C3.67553 37.8894 2.6255 36.8393 2.6255 35.5621V33.3396C2.6255 32.0623 3.67559 31.0123 4.95284 31.0123H26.2157C26.163 31.3099 26.128 31.6248 26.128 31.9397V34.0222C26.128 34.3371 26.163 34.6347 26.2157 34.9323L17.8681 34.9319L17.8679 34.9144ZM102.953 56.0542L99.9427 53.0443L104.825 48.1619C104.492 50.9092 103.845 53.5341 102.953 56.0542ZM97.8248 65.5391L92.6448 60.3414L98.0875 54.8987L101.885 58.6961C100.783 61.1466 99.4175 63.4217 97.8248 65.5391ZM80.9726 77.9118L78.0327 74.9719L83.4754 69.5292L88.3055 74.3594C86.03 75.7943 83.5626 76.9843 80.9726 77.9118ZM69.0726 79.977C68.845 79.977 68.635 79.942 68.4074 79.942C68.3897 79.9243 68.3897 79.9243 68.3897 79.907L63.4373 74.9546L68.88 69.5119L74.3399 74.9718L69.3875 79.9242C69.3698 79.942 69.3698 79.942 69.3698 79.9592C69.2475 79.9592 69.1599 79.977 69.0726 79.977ZM49.5775 74.1844L54.2676 69.4943L59.7103 74.9369L56.8576 77.7896C54.2849 76.8618 51.8349 75.6544 49.5775 74.1844ZM36.1019 58.434L39.6543 54.8816L45.097 60.3243L40.1269 65.2944C38.5519 63.1765 37.187 60.884 36.1019 58.434ZM33.3719 48.5988L37.7994 53.0263L35.0695 55.7563C34.2643 53.4639 33.6868 51.0838 33.3719 48.5988ZM39.6543 40.2863L45.097 45.729L39.6543 51.1716L34.2116 45.729L39.6543 40.2863ZM41.5095 53.0259L46.9522 47.5832L52.3948 53.0259L46.9522 58.4685L41.5095 53.0259ZM54.2663 40.2863L59.709 45.729L54.2663 51.1716L48.8237 45.729L54.2663 40.2863ZM68.8793 40.2863L74.322 45.729L68.8793 51.1716L63.4366 45.729L68.8793 40.2863ZM83.474 40.2863L88.9166 45.729L83.474 51.1716L78.0313 45.729L83.474 40.2863ZM81.6191 53.0442L76.1764 58.4869L70.7338 53.0442L76.1764 47.6015L81.6191 53.0442ZM74.3217 60.3416L68.879 65.7843L63.4363 60.3416L68.879 54.899L74.3217 60.3416ZM67.0065 53.0442L61.5639 58.4869L56.1212 53.0442L61.5639 47.6015L67.0065 53.0442ZM54.267 54.8991L59.7096 60.3417L54.267 65.7844L48.8243 60.3417L54.267 54.8991ZM61.5644 62.1965L67.0071 67.6392L61.5644 73.0818L56.1217 67.6392L61.5644 62.1965ZM61.5644 76.8095L64.3994 79.6445C62.7895 79.4345 61.2145 79.1196 59.6919 78.6994L61.5644 76.8095ZM76.1774 76.8268L78.1199 78.7693C76.545 79.1719 74.9351 79.5045 73.2898 79.6967L76.1774 76.8268ZM76.1774 73.0994L70.7175 67.6395L76.1601 62.1968L81.6201 67.6568L76.1774 73.0994ZM78.0326 60.3426L83.4753 54.8999L88.9179 60.3599L83.4753 65.8026L78.0326 60.3426ZM85.33 53.0452L90.7727 47.6025L96.2154 53.0625L90.7727 58.5051L85.33 53.0452ZM98.0869 40.2873L103.53 45.7299L98.0869 51.1726L92.6442 45.7127L98.0869 40.2873ZM105.087 43.5774L100.554 39.0449H105.087V43.5774ZM90.7898 43.8746L85.9597 39.0445H95.6196L90.7898 43.8746ZM76.1769 43.8746L71.3467 39.0445H81.0066L76.1769 43.8746ZM61.5639 43.8746L56.7337 39.0445H66.3936L61.5639 43.8746ZM46.952 43.8746L42.1218 39.0445H51.7817L46.952 43.8746ZM33.0393 43.1921V39.0445H37.187L33.0393 43.1921ZM41.7722 67.3946L46.9699 62.1969L52.4125 67.6396L47.4075 72.6447C45.3418 71.1044 43.4521 69.3371 41.7722 67.3946ZM90.5095 72.8196L85.3472 67.6573L90.7898 62.2146L96.1797 67.6045C94.4818 69.5293 92.5743 71.2797 90.5095 72.8196ZM109.374 34.0041C109.374 35.3341 108.289 36.4192 106.959 36.4192H31.1673C29.8373 36.4192 28.7522 35.3341 28.7522 34.0041V31.9217C28.7522 30.5917 29.8373 29.5066 31.1673 29.5066H106.959C108.289 29.5066 109.374 30.5917 109.374 31.9217V34.0041Z" fill="#4A92FF"/>
<path d="M67.6045 13.7402C66.887 13.7402 66.2745 14.335 66.2745 15.0702C66.2745 15.8054 66.8693 16.4002 67.6045 16.4002C68.3397 16.4002 68.9345 15.8054 68.9345 15.0702C68.9345 14.3354 68.3224 13.7402 67.6045 13.7402Z" fill="#4A92FF"/>
<path d="M58.015 16.2598C57.2976 16.2598 56.6851 16.8546 56.6851 17.5897C56.6851 18.3249 57.2799 18.9024 58.015 18.9024C58.7502 18.9024 59.345 18.3076 59.345 17.5897C59.345 16.8723 58.7325 16.2598 58.015 16.2598Z" fill="#4A92FF"/>
<path d="M60.2899 21.9658C59.5724 21.9658 58.9599 22.5606 58.9599 23.2958C58.9599 24.0309 59.5547 24.6085 60.2899 24.6085C61.0251 24.6085 61.6199 24.0137 61.6199 23.2958C61.6199 22.5783 61.0073 21.9658 60.2899 21.9658Z" fill="#4A92FF"/>
<path d="M52.712 23.2948C52.712 24.0291 52.1168 24.6248 51.382 24.6248C50.6477 24.6248 50.0521 24.0291 50.0521 23.2948C50.0521 22.56 50.6477 21.9648 51.382 21.9648C52.1168 21.9648 52.712 22.5601 52.712 23.2948Z" fill="#4A92FF"/>
<path d="M65.6804 20.1104C64.9629 20.1104 64.3504 20.7052 64.3504 21.4403C64.3504 22.1755 64.9452 22.753 65.6804 22.753C66.4155 22.753 67.0103 22.1582 67.0103 21.4403C67.0103 20.7228 66.3978 20.1104 65.6804 20.1104Z" fill="#4A92FF"/>
<path d="M71.2629 18.4131C70.5454 18.4131 69.9329 19.0079 69.9329 19.743C69.9329 20.4782 70.5277 21.0557 71.2629 21.0557C71.998 21.0557 72.5929 20.4609 72.5929 19.743C72.5929 19.0256 71.9803 18.4131 71.2629 18.4131Z" fill="#4A92FF"/>
<path d="M76.8627 15.0879C76.1452 15.0879 75.5327 15.6827 75.5327 16.4006C75.5327 17.1181 76.1275 17.7306 76.8627 17.7306C77.5978 17.7306 78.1926 17.1357 78.1926 16.4006C78.1926 15.6654 77.5801 15.0879 76.8627 15.0879Z" fill="#4A92FF"/>
<path d="M81.6229 19.6025C80.9054 19.6025 80.2929 20.1973 80.2929 20.9325C80.2929 21.6677 80.8877 22.2452 81.6229 22.2452C82.358 22.2452 82.9528 21.6504 82.9528 20.9325C82.9528 20.215 82.3403 19.6025 81.6229 19.6025Z" fill="#4A92FF"/>
<path d="M75.5148 21.9658C74.7973 21.9658 74.1848 22.5606 74.1848 23.2785C74.1848 23.996 74.7796 24.6085 75.5148 24.6085C76.2499 24.6085 76.8447 24.0137 76.8447 23.2785C76.8447 22.5429 76.2322 21.9658 75.5148 21.9658Z" fill="#4A92FF"/>
<path d="M89.0421 21.1777C88.3246 21.1777 87.7122 21.7725 87.7122 22.5077C87.7122 23.2429 88.307 23.8204 89.0421 23.8204C89.7773 23.8204 90.3721 23.2256 90.3721 22.5077C90.3721 21.7902 89.7596 21.1777 89.0421 21.1777Z" fill="#4A92FF"/>
<path d="M109.184 108.03H94.6409C94.5532 107.942 94.4659 107.855 94.361 107.802C84.4558 102.675 76.0734 100.085 69.4236 100.085C62.8786 100.085 54.5311 102.675 44.6254 107.802C44.5204 107.855 44.4328 107.942 44.3455 108.03H29.698C28.8228 108.03 28.0354 108.468 27.5628 109.22C27.108 109.955 27.073 110.848 27.4579 111.617C28.508 113.665 30.0479 115.677 32.078 117.602C33.7056 119.142 35.8931 120 38.2381 120H100.626C102.971 120 105.141 119.16 106.768 117.62C108.798 115.695 110.356 113.682 111.406 111.635C111.791 110.864 111.756 109.972 111.318 109.237C110.846 108.467 110.058 108.03 109.184 108.03L109.184 108.03ZM69.424 102.71C74.6739 102.71 81.202 104.513 88.8317 108.03H50.1565C57.7866 104.513 64.2613 102.71 69.424 102.71ZM104.966 115.712C103.829 116.779 102.289 117.374 100.626 117.374H38.2388C36.5762 117.374 35.0362 116.78 33.8989 115.694C32.1663 114.05 30.8363 112.352 29.9263 110.637H108.956C108.046 112.352 106.698 114.067 104.966 115.712H104.966Z" fill="#4A92FF"/>
<path d="M73.9576 95.9557C73.9576 96.6732 74.5524 97.2684 75.2875 97.2684C76.0227 97.2684 76.6175 96.6736 76.6175 95.9384C76.6175 95.151 75.8823 94.5207 75.1126 94.6257C74.4474 94.748 73.9576 95.3082 73.9576 95.9557V95.9557Z" fill="#4A92FF"/>
<path d="M81.4297 94.5374C81.4297 95.2549 82.0245 95.8501 82.7597 95.8501C82.8297 95.8501 82.8824 95.8501 82.9523 95.8324C83.5998 95.7447 84.0897 95.1672 84.0897 94.5197C84.0897 93.8023 83.4949 93.207 82.7597 93.207C82.0249 93.2075 81.4297 93.82 81.4297 94.5374L81.4297 94.5374Z" fill="#4A92FF"/>
<path d="M69.6527 93.0331C69.6527 92.2457 68.9175 91.6154 68.1478 91.7205C67.5003 91.8081 67.0105 92.3857 67.0105 93.0331C67.0105 93.7506 67.6053 94.3458 68.3405 94.3458C69.0752 94.3454 69.6527 93.7506 69.6527 93.0331V93.0331Z" fill="#4A92FF"/>
<path d="M60.9201 96.4979C60.9201 97.2154 61.5149 97.8106 62.2501 97.8106C62.9853 97.8106 63.5801 97.2158 63.5801 96.4807C63.5801 95.7455 62.9853 95.168 62.2501 95.168C61.5153 95.168 60.9201 95.7628 60.9201 96.4979Z" fill="#4A92FF"/>
<path d="M55.3894 95.1502C54.7419 95.2379 54.2521 95.7977 54.2521 96.4452C54.2521 97.1627 54.8469 97.7579 55.582 97.7579C55.652 97.7579 55.7047 97.7579 55.7747 97.7402C56.4222 97.6525 56.912 97.075 56.912 96.4275C56.912 96.0427 56.7371 95.675 56.4572 95.4301C56.2123 95.2202 55.9146 95.1152 55.582 95.1152C55.5121 95.1329 55.4421 95.1329 55.3894 95.1502L55.3894 95.1502Z" fill="#4A92FF"/>
<path d="M88.29 82.8125C87.5725 82.8125 86.96 83.4073 86.96 84.1425C86.96 84.8776 87.5548 85.4724 88.29 85.4724C89.0251 85.4724 89.6199 84.8776 89.6199 84.1425C89.6199 83.4073 89.0251 82.8125 88.29 82.8125Z" fill="#4A92FF"/>
<path d="M99.223 86.6454C99.223 87.3802 98.6278 87.9758 97.893 87.9758C97.1587 87.9758 96.563 87.3801 96.563 86.6454C96.563 85.9111 97.1587 85.3154 97.893 85.3154C98.6278 85.3154 99.223 85.9111 99.223 86.6454Z" fill="#4A92FF"/>
<path d="M90.2152 93.1905C90.9327 93.1905 91.5452 92.5957 91.5452 91.8605C91.5452 91.1254 90.9504 90.5479 90.2152 90.5479C89.48 90.5479 88.8852 91.1427 88.8852 91.8605C88.8852 92.578 89.4977 93.1905 90.2152 93.1905Z" fill="#4A92FF"/>
<path d="M84.6499 90.1453C85.3674 90.1453 85.9799 89.5505 85.9799 88.8153C85.9799 88.0802 85.3851 87.4854 84.6499 87.4854C83.9148 87.4854 83.32 88.0802 83.32 88.8153C83.32 89.5505 83.9148 90.1453 84.6499 90.1453Z" fill="#4A92FF"/>
<path d="M80.3624 85.4911C80.3624 84.7736 79.7676 84.1611 79.0325 84.1611C78.2973 84.1611 77.7025 84.7559 77.7025 85.4911C77.7025 86.2263 78.2973 86.8038 79.0325 86.8038C79.7672 86.8034 80.3624 86.2086 80.3624 85.4911Z" fill="#4A92FF"/>
<path d="M75.6205 89.9872C75.6205 90.7215 75.0249 91.3172 74.2906 91.3172C73.5558 91.3172 72.9606 90.7215 72.9606 89.9872C72.9606 89.2524 73.5558 88.6572 74.2906 88.6572C75.0249 88.6572 75.6205 89.2524 75.6205 89.9872Z" fill="#4A92FF"/>
<path d="M49.8069 93.1902C50.5244 93.1902 51.1369 92.5954 51.1369 91.8602C51.1369 91.1251 50.5421 90.5303 49.8069 90.5303C49.0717 90.5303 48.4769 91.1251 48.4769 91.8602C48.4769 92.595 49.0894 93.1902 49.8069 93.1902Z" fill="#4A92FF"/>
<path d="M41.547 89.34C41.547 88.6226 40.9522 88.0273 40.217 88.0273C39.4818 88.0273 38.887 88.6221 38.887 89.34C38.887 90.0575 39.4818 90.67 40.217 90.67C40.9518 90.67 41.547 90.0748 41.547 89.34Z" fill="#4A92FF"/>
<path d="M49.2123 84.1259C49.2123 84.8602 48.6166 85.4558 47.8823 85.4558C47.1475 85.4558 46.5523 84.8602 46.5523 84.1259C46.5523 83.3911 47.1476 82.7959 47.8823 82.7959C48.6166 82.7959 49.2123 83.3911 49.2123 84.1259Z" fill="#4A92FF"/>
<path d="M54.8304 84.4922C54.1129 84.4922 53.5004 85.087 53.5004 85.8221C53.5004 86.5573 54.0952 87.1521 54.8304 87.1521C55.5656 87.1521 56.1604 86.5573 56.1604 85.8221C56.1604 85.0874 55.5651 84.4922 54.8304 84.4922Z" fill="#4A92FF"/>
<path d="M60.3946 90.5136C60.3946 89.7961 59.7998 89.1836 59.0647 89.1836C58.3295 89.1836 57.752 89.7784 57.752 90.5136C57.752 91.2487 58.3468 91.8263 59.0819 91.8263C59.8171 91.8258 60.3946 91.231 60.3946 90.5136Z" fill="#4A92FF"/>
<path d="M65.1548 87.3632C65.1548 86.6457 64.56 86.0332 63.8248 86.0332C63.0897 86.0332 62.4948 86.628 62.4948 87.3632C62.4948 88.0983 63.0897 88.6759 63.8248 88.6759C64.5596 88.6754 65.1548 88.0979 65.1548 87.3632Z" fill="#4A92FF"/>
</svg>
