<svg width="60" height="60" viewBox="0 0 60 60" fill="none" xmlns="http://www.w3.org/2000/svg">
  <path d="M28.267 6.23286C28.6358 5.76596 29.207 5.4663 29.8482 5.4663C30.4337 5.4663 30.9608 5.71613 31.3288 6.11498C32.0852 5.59663 32.5814 4.72632 32.5814 3.7401C32.5814 2.15118 31.2933 0.863101 29.7044 0.863101C28.1155 0.863101 26.8274 2.15118 26.8274 3.7401C26.8274 4.80546 27.4065 5.73558 28.267 6.23286V6.23286ZM25.7988 16.9617C25.9963 14.4709 26.2372 11.1127 26.5214 6.88719L26.5214 6.88719C26.5402 6.60742 26.7569 6.38537 27.0295 6.35416C26.3705 5.67989 25.9643 4.75743 25.9643 3.7401C25.9643 1.6745 27.6388 0 29.7044 0C31.77 0 33.4445 1.6745 33.4445 3.7401C33.4445 4.74614 33.0473 5.6594 32.4011 6.33162L32.487 6.33131C32.7905 6.33024 33.0427 6.5652 33.0631 6.8681C33.3462 11.0777 33.5863 14.4262 33.7834 16.9137C33.9163 17.0598 34.0281 17.2254 34.1138 17.4059H36.8969V16.3989C36.8969 16.24 37.0257 16.1112 37.1846 16.1112H37.6161C38.0134 16.1112 38.3354 16.4332 38.3354 16.8305V17.8374H48.2327C48.3819 17.5794 48.6608 17.4059 48.9803 17.4059C49.457 17.4059 49.8434 17.7923 49.8434 18.269C49.8434 18.7456 49.457 19.1321 48.9803 19.1321C48.6608 19.1321 48.3819 18.9585 48.2327 18.7005H38.3354V19.8513C38.3354 20.2485 38.0134 20.5706 37.6161 20.5706H37.1846C37.0257 20.5706 36.8969 20.4418 36.8969 20.2829V19.1321H34.1138C34.0766 19.2104 34.0344 19.286 33.9878 19.3584C34.0894 20.4942 34.1747 21.3015 34.2436 21.7803C34.3505 22.5242 34.956 23.7679 36.1148 25.6991C36.7556 26.767 39.4724 31.0654 39.8629 31.6971C40.6929 33.0395 41.3903 34.2112 42.0175 35.3292C44.3459 39.4792 45.5842 42.6917 45.5842 45.1779C45.5842 52.4332 40.6731 58.4175 33.544 59.8098L32.6871 59.9771L34.5625 57.9285L34.6042 57.9057C40.8667 54.4673 43.7998 50.2376 43.4568 45.1975C43.2862 42.6918 41.9535 39.8269 39.4128 35.9939C38.8074 35.0805 38.1719 34.1643 37.2535 32.8692C34.2666 28.6569 33.949 28.1974 33.0068 26.6165C31.6947 24.4149 30.9965 22.6642 30.9315 21.1752C30.9117 20.7237 30.8917 20.2301 30.8713 19.6946C30.7085 19.5322 30.5734 19.3422 30.4736 19.1321H29.151C29.0435 19.3582 28.8952 19.5611 28.7156 19.7313C28.6916 20.2991 28.6707 20.7881 28.6528 21.1981C28.5877 22.6871 27.8896 24.4378 26.5774 26.6394C25.6352 28.2203 25.3176 28.6798 22.3307 32.8921C21.4123 34.1872 20.7768 35.1034 20.1714 36.0168C17.6308 39.8498 16.298 42.7147 16.1274 45.2204C15.7844 50.2605 18.7176 54.4902 24.98 57.9286L25.0217 57.9514L26.8971 60L26.0402 59.8327C18.9111 58.4404 14 52.4561 14 45.2008C14 42.7146 15.2383 39.5021 17.5667 35.3521C18.1939 34.2341 18.8913 33.0624 19.7213 31.72C20.1119 31.0883 22.8286 26.7899 23.4694 25.722C24.6282 23.7908 25.2337 22.5471 25.3407 21.8032C25.4111 21.3137 25.4986 20.4809 25.6033 19.3046C25.4215 19.002 25.317 18.6477 25.317 18.269C25.317 17.77 25.4984 17.3135 25.7988 16.9617ZM28.8323 16.9267C28.9601 17.0696 29.0678 17.2308 29.151 17.4059H30.4736C30.5531 17.2385 30.6549 17.0839 30.7753 16.9459C30.7093 14.9023 30.64 12.4608 30.5675 9.62138H29.129C29.0114 12.5421 28.9125 14.9772 28.8323 16.9267ZM32.2937 19.4198C32.9293 19.4198 33.4445 18.9045 33.4445 18.269C33.4445 17.6334 32.9293 17.1182 32.2937 17.1182C31.6581 17.1182 31.1429 17.6334 31.1429 18.269C31.1429 18.9045 31.6581 19.4198 32.2937 19.4198ZM27.3309 19.4198C27.9664 19.4198 28.4817 18.9045 28.4817 18.269C28.4817 17.6334 27.9664 17.1182 27.3309 17.1182C26.6953 17.1182 26.1801 17.6334 26.1801 18.269C26.1801 18.9045 26.6953 19.4198 27.3309 19.4198ZM29.8482 8.77486C30.5633 8.77486 31.1429 8.19522 31.1429 7.48021C31.1429 6.76519 30.5633 6.18555 29.8482 6.18555C29.1332 6.18555 28.5536 6.76519 28.5536 7.48021C28.5536 8.19522 29.1332 8.77486 29.8482 8.77486Z" fill="#4A92FF" />
</svg>
