<svg width="60" height="60" viewBox="0 0 60 60" fill="none" xmlns="http://www.w3.org/2000/svg">
  <g clip-path="url(#clip0_42_1594)">
    <path d="M29.2806 0.115148L8.34837 7.79035C7.94693 7.94557 7.60135 8.21774 7.35638 8.57162C7.11141 8.92549 6.97832 9.34477 6.97437 9.77515V34.1951C6.97437 39.9125 10.2012 44.6351 14.4102 48.6515C18.6192 52.6679 23.913 56.1599 28.779 59.6195C29.138 59.8671 29.5638 59.9997 30 59.9997C30.4361 59.9997 30.8619 59.8671 31.221 59.6195C36.0882 56.1599 41.382 52.6709 45.5904 48.6521C49.7988 44.6333 53.0262 39.9131 53.0262 34.1957V9.77575C53.022 9.34549 52.8888 8.92638 52.6439 8.57264C52.3989 8.2189 52.0535 7.9468 51.6522 7.79155L30.72 0.115148C30.2523 -0.0375688 29.7482 -0.0375688 29.2806 0.115148V0.115148ZM30.0006 4.32355V55.3235C25.4406 52.1087 20.8002 48.9527 17.31 45.6203C13.5048 41.9879 11.1612 38.3399 11.1612 34.1957V11.2349L30.0006 4.32355Z" fill="#4A92FF" />
  </g>
  <defs>
    <clipPath id="clip0_42_1594">
      <rect width="60" height="60" fill="white" />
    </clipPath>
  </defs>
</svg>
