<svg width="60" height="60" viewBox="0 0 60 60" fill="none" xmlns="http://www.w3.org/2000/svg">
  <g clip-path="url(#clip0_42_1584)">
    <path d="M11.9762 0.000495648C11.4981 0.000495648 11.129 0.367821 11.129 0.843727V32.9053H0.843293C0.367116 32.9053 0 33.2727 0 33.7525V59.1568C0 59.6349 0.363482 60 0.843293 60H26.2495C26.7276 60 27.0927 59.6365 27.0927 59.1568V48.868H59.1567C59.6348 48.868 60 48.5045 60 48.0248V0.843231C60 0.36515 59.6365 0 59.1567 0L11.9762 0.000495648ZM12.8175 1.68531H58.3133V47.1777H27.0923V33.7469C27.0923 33.2688 26.7288 32.9037 26.249 32.9037H12.8172L12.8175 1.68531ZM42.2095 8.83042C41.7333 8.83042 41.3662 9.19774 41.3662 9.67756C41.3662 10.1576 41.7297 10.5208 42.2095 10.5208H48.2297L31.3099 27.4355C30.9718 27.7736 30.9718 28.2884 31.3099 28.6268C31.477 28.7939 31.6888 28.8715 31.8987 28.8734H31.9065C32.1261 28.8734 32.3321 28.7939 32.4992 28.6268H32.5031L49.3359 11.7952V17.6322C49.3359 18.1102 49.6994 18.4754 50.1792 18.4754C50.6593 18.4754 51.0225 18.1119 51.0225 17.6322V9.67717C51.0225 9.19909 50.6552 8.83003 50.1792 8.83003L42.2095 8.83042ZM1.68615 34.5887H11.1283V48.0195C11.1283 48.4957 11.4995 48.8667 11.9755 48.8667H25.4073V58.3081H1.68543V35.5597L1.68615 34.5887ZM12.8131 34.5887H25.4058V47.1783H12.8131V34.5887Z" fill="#4A92FF" />
  </g>
  <defs>
    <clipPath id="clip0_42_1584">
      <rect width="60" height="60" fill="white" />
    </clipPath>
  </defs>
</svg>
