<svg width="120" height="120" viewBox="0 0 120 120" fill="none" xmlns="http://www.w3.org/2000/svg">
<path d="M70.5872 22.2723V16.6269H76.8232L76.8235 8H44.0578V16.6269H50.293V22.2723C30.0857 26.884 15 44.9548 15 66.5642C15 91.6613 35.3434 112 60.4406 112C85.5358 112 105.882 91.6613 105.882 66.5642C105.882 44.9548 90.7954 26.8843 70.5872 22.2723H70.5872ZM60.4387 105.966C39.1328 105.966 21.8602 88.6964 21.8602 67.3896C21.8602 46.0799 39.1337 28.8073 60.4387 28.8073C81.7474 28.8073 99.02 46.0808 99.02 67.3896C99.02 88.6964 81.7465 105.966 60.4387 105.966Z" fill="#4A92FF"/>
<path d="M60.4387 33.2959V67.3881L36.5224 43.0975C30.2421 49.2809 26.3483 57.8759 26.3483 67.3881C26.3483 86.216 41.6118 101.477 60.4387 101.477C79.2693 101.477 94.5328 86.216 94.5328 67.3881C94.5328 48.5537 79.2693 33.2959 60.4387 33.2959V33.2959Z" fill="#4A92FF"/>
</svg>
