<svg width="60" height="60" viewBox="0 0 60 60" fill="none" xmlns="http://www.w3.org/2000/svg">
  <g clip-path="url(#clip0_42_1586)">
    <path d="M21.5728 40H0.427184C0.191379 39.9997 0.000292439 39.8086 0 39.5728V18.4272C0 18.1913 0.191258 18 0.427184 18H21.5728C21.8087 18 22 18.1913 22 18.4272V39.5728C22 39.8087 21.8087 40 21.5728 40ZM12.6019 35.1598V35.8777H14.0889C14.3093 35.8805 14.5285 35.8444 14.7363 35.7709C14.9257 35.7015 15.0984 35.5927 15.2427 35.4517C15.3913 35.304 15.5033 35.1236 15.5696 34.9248C15.6461 34.6894 15.6829 34.4429 15.6785 34.1954V33.1905C15.6725 32.928 15.7232 32.6674 15.8272 32.4264C15.9163 32.2259 16.0415 32.0434 16.1964 31.888C16.3316 31.7525 16.4918 31.6446 16.6681 31.5702C16.8089 31.5078 16.9603 31.473 17.1142 31.4676V30.7498C16.9617 30.7454 16.811 30.7159 16.6681 30.6626C16.4931 30.5997 16.3326 30.5021 16.1964 30.3755C16.0402 30.2291 15.9147 30.053 15.8272 29.8577C15.721 29.6083 15.6703 29.3389 15.6785 29.068V28.0222C15.6811 27.7913 15.6413 27.5618 15.5611 27.3453C15.487 27.1481 15.3756 26.967 15.2329 26.8121C15.0913 26.6609 14.9201 26.5405 14.73 26.4582C14.5276 26.3715 14.3094 26.3279 14.0892 26.3301H12.6019V27.048H13.7299C14.1586 27.048 14.4605 27.1515 14.627 27.3557C14.7935 27.5599 14.8783 27.8669 14.8783 28.2683V29.263C14.8739 29.5209 14.9264 29.7765 15.0321 30.0117C15.1237 30.2139 15.2484 30.3993 15.4013 30.5603C15.5313 30.6965 15.6797 30.8138 15.8423 30.909C15.9556 30.9799 16.0806 31.0303 16.2114 31.0576V31.1192C16.0831 31.1497 15.9614 31.2036 15.8525 31.2782C15.688 31.3827 15.5394 31.5105 15.4115 31.6576C15.2612 31.8291 15.1354 32.0206 15.0378 32.2267C14.9301 32.4542 14.8757 32.7032 14.8787 32.9549V33.9393C14.8787 34.3544 14.789 34.6649 14.6117 34.8624C14.4345 35.0598 14.1346 35.1598 13.7195 35.1598H12.6019ZM7.91104 26.3301C7.69085 26.3279 7.47262 26.3715 7.27025 26.4582C7.0803 26.5405 6.90926 26.6609 6.76779 26.8121C6.62506 26.967 6.51361 27.1481 6.43959 27.3453C6.35931 27.5618 6.3195 27.7913 6.32213 28.0222V29.0683C6.33037 29.3391 6.27966 29.6086 6.17347 29.8579C6.08592 30.0533 5.96042 30.2293 5.80427 30.3758C5.66801 30.5023 5.50754 30.5999 5.33256 30.6628C5.18961 30.7162 5.03886 30.7456 4.88636 30.75V31.4678C5.04025 31.4732 5.19173 31.508 5.33256 31.5704C5.50885 31.6448 5.66905 31.7528 5.80427 31.8882C5.95918 32.0436 6.08432 32.2261 6.17347 32.4267C6.27746 32.6676 6.32819 32.9283 6.32213 33.1907V34.1956C6.31778 34.4431 6.35459 34.6896 6.43106 34.9251C6.49735 35.1238 6.60931 35.3042 6.75794 35.4519C6.90226 35.5929 7.07482 35.7017 7.26427 35.7711C7.47209 35.8446 7.69125 35.8807 7.91168 35.8779H9.39805V35.16H8.28024C7.86511 35.16 7.5647 35.0599 7.38806 34.8626C7.21141 34.6652 7.12105 34.3546 7.12105 33.9395V32.9551C7.12408 32.7034 7.0697 32.4544 6.96203 32.2269C6.8644 32.0208 6.7386 31.8293 6.58825 31.6578C6.46035 31.5107 6.31183 31.3829 6.14728 31.2784C6.03836 31.2038 5.91666 31.1499 5.78825 31.1194V31.0579C5.91915 31.0305 6.04418 30.9801 6.15756 30.9092C6.32001 30.8141 6.4684 30.6967 6.59839 30.5605C6.75126 30.3995 6.87605 30.2141 6.96759 30.0119C7.07338 29.7767 7.12591 29.5211 7.12148 29.2632V28.2683C7.12148 27.8668 7.20607 27.5598 7.37279 27.3557C7.53948 27.1516 7.84139 27.048 8.26988 27.048H9.39805V26.3301H7.91104ZM1.06796 19.068V22.4854H20.932V19.068H1.06796Z" fill="#4A92FF" />
    <path d="M48.6363 23L44.2725 37.3821L46.3634 38L50.7273 23.6179L48.6363 23ZM41.6591 24.3258L35.841 29.7192L35 30.5057L35.841 31.2922L41.6591 36.6855L43.159 35.1125L38.1931 30.5059L43.159 25.8993L41.6591 24.3258ZM53.3409 24.3258L51.841 25.8988L56.8069 30.5054L51.841 35.112L53.3409 36.685L59.159 31.2917L60 30.5052L59.159 29.7187L53.3409 24.3258Z" fill="#4A92FF" />
    <rect x="29" width="2" height="61" fill="#4A92FF" />
  </g>
  <defs>
    <clipPath id="clip0_42_1586">
      <rect width="60" height="60" fill="white" />
    </clipPath>
  </defs>
</svg>
